<svg width="4" height="18" viewBox="0 0 4 18" fill="none" xmlns="http://www.w3.org/2000/svg">
<path d="M4 9.00004C4 7.89547 3.10457 7.00004 2 7.00004C0.895431 7.00004 0 7.89547 0 9.00004C0 10.1046 0.895431 11 2 11C3.10457 11 4 10.1046 4 9.00004Z" fill="#C6C6C6"/>
<path d="M4 2C4 0.895426 3.10457 -4.76837e-06 2 -4.76837e-06C0.895431 -4.76837e-06 0 0.895426 0 2C0 3.10457 0.895431 4 2 4C3.10457 4 4 3.10457 4 2Z" fill="#C6C6C6"/>
<path d="M4 16C4 14.8954 3.10457 14 2 14C0.895431 14 0 14.8954 0 16C0 17.1046 0.895431 18 2 18C3.10457 18 4 17.1046 4 16Z" fill="#C6C6C6"/>
</svg>
