<svg width="34" height="8" viewBox="0 0 34 8" fill="none" xmlns="http://www.w3.org/2000/svg">
<path d="M16.9999 7.7778C19.0863 7.7778 20.7777 6.08643 20.7777 4.00002C20.7777 1.91361 19.0863 0.222244 16.9999 0.222244C14.9135 0.222244 13.2221 1.91361 13.2221 4.00002C13.2221 6.08643 14.9135 7.7778 16.9999 7.7778Z" fill="#C6C6C6"/>
<path d="M30.2222 7.7778C32.3086 7.7778 34 6.08643 34 4.00002C34 1.91361 32.3086 0.222244 30.2222 0.222244C28.1358 0.222244 26.4445 1.91361 26.4445 4.00002C26.4445 6.08643 28.1358 7.7778 30.2222 7.7778Z" fill="#C6C6C6"/>
<path d="M3.77778 7.77778C5.86419 7.77778 7.55556 6.08641 7.55556 4C7.55556 1.91359 5.86419 0.222221 3.77778 0.222221C1.69137 0.222221 0 1.91359 0 4C0 6.08641 1.69137 7.77778 3.77778 7.77778Z" fill="#C6C6C6"/>
</svg>
