<svg width="27" height="27" viewBox="0 0 27 27" fill="none" xmlns="http://www.w3.org/2000/svg">
<path d="M22.6125 10.3736C20.5763 10.3736 19.7438 8.93362 20.7563 7.16737C21.3413 6.14362 20.9925 4.83862 19.9688 4.25362L18.0225 3.13987C17.1338 2.61112 15.9862 2.92612 15.4575 3.81487L15.3337 4.02862C14.3212 5.79487 12.6562 5.79487 11.6325 4.02862L11.5087 3.81487C11.3875 3.60222 11.2251 3.41582 11.0311 3.2665C10.8371 3.11719 10.6154 3.00795 10.3788 2.94513C10.1422 2.88232 9.89547 2.86719 9.65297 2.90062C9.41046 2.93405 9.17703 3.01538 8.96625 3.13987L7.02 4.25362C5.99625 4.83862 5.6475 6.15487 6.2325 7.17862C7.25625 8.93362 6.42375 10.3736 4.3875 10.3736C3.2175 10.3736 2.25 11.3299 2.25 12.5111V14.4911C2.25 15.6611 3.20625 16.6286 4.3875 16.6286C6.42375 16.6286 7.25625 18.0686 6.2325 19.8349C5.6475 20.8586 5.99625 22.1636 7.02 22.7486L8.96625 23.8624C9.855 24.3911 11.0025 24.0761 11.5312 23.1874L11.655 22.9736C12.6675 21.2074 14.3325 21.2074 15.3562 22.9736L15.48 23.1874C16.0087 24.0761 17.1563 24.3911 18.045 23.8624L19.9913 22.7486C21.015 22.1636 21.3637 20.8474 20.7787 19.8349C19.755 18.0686 20.5875 16.6286 22.6238 16.6286C23.7938 16.6286 24.7612 15.6724 24.7612 14.4911V12.5111C24.7554 11.9441 24.5267 11.4021 24.1247 11.0022C23.7227 10.6023 23.1795 10.3765 22.6125 10.3736ZM13.5 17.1574C11.4862 17.1574 9.84375 15.5149 9.84375 13.5011C9.84375 11.4874 11.4862 9.84487 13.5 9.84487C15.5138 9.84487 17.1562 11.4874 17.1562 13.5011C17.1562 15.5149 15.5138 17.1574 13.5 17.1574Z" fill="#B4B3C7"/>
</svg>
