<svg width="27" height="27" viewBox="0 0 27 27" fill="none" xmlns="http://www.w3.org/2000/svg">
<path d="M10.125 2.25C7.17752 2.25 4.78127 4.64625 4.78127 7.59375C4.78127 10.485 7.04252 12.825 9.99002 12.9262C10.08 12.915 10.17 12.915 10.2375 12.9262H10.3163C11.6993 12.8801 13.0102 12.2979 13.9717 11.3028C14.9333 10.3076 15.4701 8.97754 15.4688 7.59375C15.4688 4.64625 13.0725 2.25 10.125 2.25ZM15.84 15.9176C12.7013 13.8251 7.58252 13.8251 4.42127 15.9176C2.99252 16.8739 2.20502 18.1676 2.20502 19.5514C2.20502 20.9351 2.99252 22.2176 4.41002 23.1626C5.98502 24.2201 8.05502 24.7489 10.125 24.7489C12.195 24.7489 14.265 24.2201 15.84 23.1626C17.2575 22.2064 18.045 20.9239 18.045 19.5289C18.0338 18.1451 17.2575 16.8626 15.84 15.9176ZM22.4888 8.25525C22.6688 10.4377 21.1163 12.3503 18.9675 12.609H18.9113C18.8438 12.609 18.7763 12.609 18.72 12.6315C17.6288 12.6877 16.6275 12.339 15.8738 11.6978C17.0325 10.6627 17.6963 9.11025 17.5613 7.42275C17.4841 6.54525 17.1861 5.70156 16.695 4.97025C17.2845 4.68347 17.9349 4.5444 18.5901 4.56505C19.2454 4.5857 19.8857 4.76544 20.456 5.08877C21.0262 5.4121 21.5093 5.86932 21.8634 6.42097C22.2176 6.97262 22.4322 7.60215 22.4888 8.25525Z" fill="#B4B3C7"/>
<path d="M24.7365 18.6637C24.6465 19.755 23.949 20.7 22.779 21.3412C21.654 21.96 20.2365 22.2525 18.8303 22.2187C19.6403 21.4875 20.1128 20.5762 20.2028 19.6087C20.3153 18.2137 19.6515 16.875 18.324 15.8062C17.5703 15.21 16.6928 14.7375 15.7365 14.3887C18.2228 13.6687 21.3503 14.1525 23.274 15.705C24.309 16.5375 24.8378 17.5837 24.7365 18.6637Z" fill="#B4B3C7"/>
</svg>
