<svg width="593" height="332" viewBox="0 0 593 332" fill="none" xmlns="http://www.w3.org/2000/svg">
<mask id="mask0_2_219" style="mask-type:alpha" maskUnits="userSpaceOnUse" x="0" y="-141" width="904" height="767">
<rect y="60.6201" width="779" height="585" transform="rotate(-15 0 60.6201)" fill="#E6E9F3"/>
</mask>
<g mask="url(#mask0_2_219)">
<path d="M308.833 482.847C412.29 536.749 526.123 488.335 586.779 376.565C647.436 264.796 593.124 129.905 479.646 98.5455C366.169 67.1865 258.615 98.2013 201.7 204.827C144.784 311.453 205.375 428.945 308.833 482.847Z" fill="#EFF3F0"/>
<path d="M676.524 -44.9419C727.927 -32.3543 783.978 -45.0309 805.947 -94.4579C827.916 -143.885 805.591 -201.853 756.082 -223.933C706.573 -246.013 654.196 -215.225 626.659 -174.417C599.121 -133.61 625.122 -57.5295 676.524 -44.9419Z" fill="#EFF3F0"/>
<path d="M916.154 187.126C984.021 217.393 1003.94 291.57 984.384 364.89C964.829 438.21 918.414 513.313 889.454 578.469C860.493 643.625 784.131 678.832 711.917 646.626C639.703 614.42 607.418 530.912 643.687 468.862C679.955 406.811 700.046 322.516 738.618 255.283C777.19 188.05 848.288 156.859 916.154 187.126Z" fill="#EFF3F0"/>
<path d="M126.431 225.945C180.547 250.08 238.731 225.748 261.738 173.985C284.746 122.222 260.353 53.3936 209.749 38.4945C159.145 23.5954 92.3859 30.6512 74.442 90.4547C56.4982 150.258 72.3153 201.811 126.431 225.945Z" fill="#E0436B"/>
<path d="M37.5412 107.739C48.813 112.766 60.934 107.694 65.7285 96.9066C70.5231 86.1196 65.4444 71.7785 54.9038 68.6757C44.3632 65.573 30.4565 67.0457 26.7164 79.5079C22.9764 91.9701 26.2693 102.712 37.5412 107.739Z" fill="#E0436B"/>
<path d="M612.587 0.197343C641.023 12.8792 671.601 0.0832712 683.696 -27.1293C695.791 -54.3418 682.979 -90.5206 656.388 -98.3479C629.797 -106.175 594.714 -102.46 585.279 -71.0213C575.844 -39.5827 584.151 -12.4845 612.587 0.197343Z" fill="#7252A4"/>
<path d="M290.646 183.253C301.918 188.28 314.039 183.208 318.834 172.421C323.628 161.634 318.55 147.293 308.009 144.19C297.468 141.088 283.562 142.56 279.822 155.023C276.082 167.485 279.375 178.226 290.646 183.253Z" fill="#7252A4"/>
<path d="M332.591 174.182C337.715 176.467 343.224 174.162 345.404 169.258C347.583 164.355 345.275 157.837 340.483 156.426C335.692 155.016 329.371 155.685 327.671 161.35C325.971 167.015 327.468 171.897 332.591 174.182Z" fill="#7252A4"/>
<path d="M267.8 405.872C309.992 427.855 356.416 408.11 381.153 362.527C405.89 316.945 383.741 261.932 337.462 249.143C291.183 236.355 247.32 249.003 224.109 292.488C200.897 335.973 225.608 383.889 267.8 405.872Z" fill="#F0C933"/>
<path d="M482.102 214.05C498.074 222.371 515.647 214.897 525.011 197.642C534.375 180.388 525.99 159.563 508.472 154.722C490.954 149.881 474.35 154.669 465.563 171.13C456.777 187.591 466.131 205.729 482.102 214.05Z" fill="#453264"/>
<path d="M122.399 278.184C127.643 280.916 133.413 278.462 136.488 272.796C139.563 267.13 136.81 260.293 131.057 258.703C125.305 257.113 119.853 258.685 116.968 264.09C114.083 269.495 117.154 275.451 122.399 278.184Z" fill="#453264"/>
<path d="M478.879 231.097C477.303 236.799 480.904 241.941 487.081 243.777C493.258 245.614 499.365 241.5 499.719 235.538C500.072 229.576 497.399 224.563 491.517 222.858C485.634 221.153 480.455 225.395 478.879 231.097Z" fill="#453264"/>
<path d="M747.914 47.2023C797.423 69.2824 811.951 123.403 797.68 176.9C783.409 230.398 749.544 285.197 728.414 332.738C707.283 380.279 651.572 405.971 598.892 382.477C546.211 358.982 522.663 298.055 549.125 252.779C575.588 207.503 590.249 145.998 618.392 96.941C646.535 47.8839 698.404 25.1222 747.914 47.2023Z" fill="#0F90D1"/>
<path d="M540.91 91.6619C562.484 102.902 586.221 92.8062 598.869 69.4995C611.518 46.1927 600.192 18.0644 576.529 11.5253C552.866 4.98611 530.439 11.4535 518.57 33.6877C506.702 55.9219 519.337 80.4219 540.91 91.6619Z" fill="#C4C8D4"/>
<path d="M24.4954 567.495C83.6139 598.296 148.661 570.631 183.322 506.763C217.983 442.895 186.947 365.814 122.103 347.894C57.2587 329.975 -4.20052 347.698 -36.7236 408.627C-69.2467 469.556 -34.6232 536.694 24.4954 567.495Z" fill="#C4C8D4"/>
<path d="M473.686 -193.647C523.195 -171.567 545.476 -113.5 523.452 -63.9495C501.428 -14.3996 469.747 41.2881 454.186 91.8885C438.625 142.489 371.49 169.701 324.664 141.627C277.838 113.554 250.337 67.1858 274.897 11.9294C299.458 -43.3271 320.03 -89.6124 344.164 -143.909C368.297 -198.205 424.177 -215.727 473.686 -193.647Z" fill="#6759AE"/>
</g>
</svg>
