<svg width="27" height="27" viewBox="0 0 27 27" fill="none" xmlns="http://www.w3.org/2000/svg">
<path d="M24.75 8.4915C24.75 9.234 24.1425 9.8415 23.4 9.8415H3.6C2.8575 9.8415 2.25 9.234 2.25 8.4915V8.48025C2.25 5.904 4.33125 3.82275 6.9075 3.82275H20.0813C22.6575 3.82275 24.75 5.91525 24.75 8.4915ZM2.25 12.8813V18.5175C2.25 21.0938 4.33125 23.175 6.9075 23.175H20.0813C22.6575 23.175 24.75 21.0825 24.75 18.5063V12.8813C24.75 12.1388 24.1425 11.5313 23.4 11.5313H3.6C2.8575 11.5313 2.25 12.1388 2.25 12.8813ZM9 19.4063H6.75C6.28875 19.4063 5.90625 19.0238 5.90625 18.5625C5.90625 18.1013 6.28875 17.7188 6.75 17.7188H9C9.46125 17.7188 9.84375 18.1013 9.84375 18.5625C9.84375 19.0238 9.46125 19.4063 9 19.4063ZM16.3125 19.4063H11.8125C11.3512 19.4063 10.9688 19.0238 10.9688 18.5625C10.9688 18.1013 11.3512 17.7188 11.8125 17.7188H16.3125C16.7738 17.7188 17.1562 18.1013 17.1562 18.5625C17.1562 19.0238 16.7738 19.4063 16.3125 19.4063Z" fill="#B4B3C7"/>
</svg>
