<svg width="27" height="27" viewBox="0 0 27 27" fill="none" xmlns="http://www.w3.org/2000/svg">
<path d="M24.75 24.75H2.25C1.78875 24.75 1.40625 24.3675 1.40625 23.9062C1.40625 23.445 1.78875 23.0625 2.25 23.0625H24.75C25.2113 23.0625 25.5938 23.445 25.5938 23.9062C25.5938 24.3675 25.2113 24.75 24.75 24.75Z" fill="#B4B3C7"/>
<path d="M10.9688 4.5V24.75H16.0312V4.5C16.0312 3.2625 15.525 2.25 14.0062 2.25H12.9938C11.475 2.25 10.9688 3.2625 10.9688 4.5ZM3.375 11.25V24.75H7.875V11.25C7.875 10.0125 7.425 9 6.075 9H5.175C3.825 9 3.375 10.0125 3.375 11.25ZM19.125 16.875V24.75H23.625V16.875C23.625 15.6375 23.175 14.625 21.825 14.625H20.925C19.575 14.625 19.125 15.6375 19.125 16.875Z" fill="#B4B3C7"/>
</svg>
