<svg width="27" height="27" viewBox="0 0 27 27" fill="none" xmlns="http://www.w3.org/2000/svg">
<path d="M10.125 10.9688C10.125 10.0369 9.36932 9.28125 8.4375 9.28125H7.59375C5.72959 9.28125 4.21875 10.7921 4.21875 12.6562V15.1875C4.21875 17.0517 5.72959 18.5625 7.59375 18.5625H8.4375C9.36932 18.5625 10.125 17.8068 10.125 16.875V10.9688ZM19.4062 18.5625C21.2704 18.5625 22.7812 17.0517 22.7812 15.1875V12.6562C22.7812 10.7921 21.2704 9.28125 19.4062 9.28125H18.5625C17.6307 9.28125 16.875 10.0369 16.875 10.9688V16.875C16.875 17.8068 17.6307 18.5625 18.5625 18.5625H19.4062ZM13.5 0C5.96848 0 0.241523 6.26643 0 13.5V14.3438C0 14.8099 0.377578 15.1875 0.84375 15.1875H1.6875C2.15367 15.1875 2.53125 14.8099 2.53125 14.3438V13.5C2.53125 7.45189 7.45189 2.53125 13.5 2.53125C19.5481 2.53125 24.4688 7.45189 24.4688 13.5H24.4624C24.4666 13.6281 24.4688 22.2391 24.4688 22.2391C24.4688 23.4705 23.4705 24.4688 22.2391 24.4688H16.875C16.875 23.0708 15.7417 21.9375 14.3438 21.9375H12.6562C11.2583 21.9375 10.125 23.0708 10.125 24.4688C10.125 25.8667 11.2583 27 12.6562 27H22.2391C24.8685 27 27 24.8685 27 22.2391V13.5C26.7585 6.26643 21.0315 0 13.5 0Z" fill="#B4B3C7"/>
</svg>
