<svg width="27" height="27" viewBox="0 0 27 27" fill="none" xmlns="http://www.w3.org/2000/svg">
<path d="M23.0625 11.4637H19.8113C17.145 11.4637 14.9738 9.2925 14.9738 6.62625V3.375C14.9738 2.75625 14.4675 2.25 13.8488 2.25H9.07875C5.61375 2.25 2.8125 4.5 2.8125 8.51625V18.4838C2.8125 22.5 5.61375 24.75 9.07875 24.75H17.9213C21.3863 24.75 24.1875 22.5 24.1875 18.4838V12.5887C24.1875 11.97 23.6813 11.4637 23.0625 11.4637ZM15.4688 16.8075V16.9875C15.4463 17.145 15.3787 17.2912 15.2662 17.4262L15.2212 17.4712L12.9712 19.7213C12.8025 19.89 12.5887 19.9688 12.375 19.9688C12.1613 19.9688 11.9475 19.89 11.7788 19.7213C11.6218 19.5625 11.5338 19.3482 11.5338 19.125C11.5338 18.9018 11.6218 18.6875 11.7788 18.5287L12.5887 17.7188H7.875C7.41375 17.7188 7.03125 17.3362 7.03125 16.875C7.03125 16.4138 7.41375 16.0312 7.875 16.0312H12.5887L11.7788 15.2212C11.7 15.1433 11.6375 15.0504 11.595 14.948C11.5525 14.8456 11.5309 14.7358 11.5312 14.625C11.5312 14.4113 11.61 14.1975 11.7788 14.0288C12.105 13.7025 12.645 13.7025 12.9712 14.0288L15.2212 16.2788C15.3675 16.4363 15.4463 16.6162 15.4688 16.8075Z" fill="#B4B3C7"/>
<path d="M19.6088 9.91126C20.6775 9.92251 22.1625 9.92251 23.4338 9.92251C24.075 9.92251 24.4125 9.16876 23.9625 8.71876C22.3425 7.08751 19.44 4.15126 17.775 2.48626C17.3138 2.02501 16.515 2.34001 16.515 2.98126V6.90751C16.515 8.55001 17.91 9.91126 19.6088 9.91126Z" fill="#B4B3C7"/>
</svg>
