<svg width="27" height="27" viewBox="0 0 27 27" fill="none" xmlns="http://www.w3.org/2000/svg">
<path d="M8.86276 13.5788C8.86276 13.1175 9.24526 12.735 9.70651 12.735H15.8715V3.2175C15.8688 2.95978 15.7645 2.71354 15.5812 2.53236C15.3979 2.35117 15.1505 2.24969 14.8928 2.25C8.26651 2.25 3.64276 6.87375 3.64276 13.5C3.64276 20.1263 8.26651 24.75 14.8928 24.75C15.4215 24.75 15.8603 24.3225 15.8603 23.7825V14.4113H9.70651C9.596 14.4137 9.48612 14.3939 9.3834 14.353C9.28068 14.3122 9.18721 14.2511 9.10852 14.1735C9.02983 14.0959 8.96754 14.0032 8.92532 13.9011C8.88311 13.7989 8.86183 13.6893 8.86276 13.5788Z" fill="#B4B3C7"/>
<path d="M23.1097 12.9825L19.9147 9.77626C19.756 9.61934 19.5417 9.53134 19.3185 9.53134C19.0953 9.53134 18.881 9.61934 18.7222 9.77626C18.396 10.1025 18.396 10.6425 18.7222 10.9688L20.4772 12.7238H15.8647V14.4113H20.466L18.711 16.1663C18.3847 16.4925 18.3847 17.0325 18.711 17.3588C18.8797 17.5275 19.0935 17.6063 19.3072 17.6063C19.521 17.6063 19.7347 17.5275 19.9035 17.3588L23.0985 14.1525C23.436 13.8375 23.436 13.3088 23.1097 12.9825Z" fill="#B4B3C7"/>
</svg>
