<svg width="20" height="20" viewBox="0 0 20 20" fill="none" xmlns="http://www.w3.org/2000/svg">
<g clip-path="url(#clip0_2_118)">
<path d="M18.3334 18.3333L16.6667 16.6667M9.58335 17.5C10.623 17.5 11.6524 17.2952 12.6129 16.8974C13.5734 16.4995 14.4462 15.9164 15.1813 15.1813C15.9164 14.4461 16.4995 13.5734 16.8974 12.6129C17.2952 11.6524 17.5 10.623 17.5 9.58334C17.5 8.54371 17.2952 7.51426 16.8974 6.55376C16.4995 5.59327 15.9164 4.72054 15.1813 3.98541C14.4462 3.25028 13.5734 2.66714 12.6129 2.26929C11.6524 1.87144 10.623 1.66667 9.58335 1.66667C7.48372 1.66667 5.47009 2.50075 3.98542 3.98541C2.50076 5.47007 1.66669 7.48371 1.66669 9.58334C1.66669 11.683 2.50076 13.6966 3.98542 15.1813C5.47009 16.6659 7.48372 17.5 9.58335 17.5Z" stroke="#7E7E7E" stroke-width="1.5" stroke-linecap="round" stroke-linejoin="round"/>
</g>
<defs>
<clipPath id="clip0_2_118">
<rect width="20" height="20" fill="white"/>
</clipPath>
</defs>
</svg>
