<svg width="27" height="27" viewBox="0 0 27 27" fill="none" xmlns="http://www.w3.org/2000/svg">
<path d="M18.2138 2.25H8.78625C4.69125 2.25 2.25 4.69125 2.25 8.78625V18.2025C2.25 22.3088 4.69125 24.75 8.78625 24.75H18.2025C22.2975 24.75 24.7387 22.3088 24.7387 18.2138V8.78625C24.75 4.69125 22.3088 2.25 18.2138 2.25ZM19.9013 15.8063C19.8563 15.9075 19.8 15.9975 19.7213 16.0762L16.4025 19.395C16.2337 19.5637 16.02 19.6425 15.8063 19.6425C15.5925 19.6425 15.3788 19.5637 15.21 19.395C15.0531 19.2362 14.9651 19.022 14.9651 18.7987C14.9651 18.5755 15.0531 18.3613 15.21 18.2025L17.0887 16.3238H7.875C7.41375 16.3238 7.03125 15.9413 7.03125 15.48C7.03125 15.0188 7.41375 14.6363 7.875 14.6363H19.125C19.2375 14.6363 19.3388 14.6587 19.4513 14.7037C19.6538 14.7937 19.8225 14.9512 19.9125 15.165C19.9913 15.3675 19.9913 15.5925 19.9013 15.8063ZM19.125 12.3637H7.875C7.7625 12.3637 7.66125 12.3413 7.54875 12.2963C7.34157 12.2073 7.17646 12.0422 7.0875 11.835C7.043 11.734 7.02001 11.6248 7.02001 11.5144C7.02001 11.404 7.043 11.2948 7.0875 11.1937C7.14375 11.0925 7.2 11.0025 7.27875 10.9238L10.5975 7.605C10.9238 7.27875 11.4637 7.27875 11.79 7.605C12.1162 7.93125 12.1162 8.47125 11.79 8.7975L9.91125 10.6762H19.125C19.5862 10.6762 19.9688 11.0587 19.9688 11.52C19.9688 11.9812 19.5862 12.3637 19.125 12.3637Z" fill="#B4B3C7"/>
</svg>
